<svg id="bell_black" xmlns="http://www.w3.org/2000/svg" width="14.482" height="19.717" viewBox="0 0 14.482 19.717">
  <g id="Layer_3" transform="translate(0 0)">
    <path id="Path_5" data-name="Path 5" d="M19.521,19.437,18.038,17.6a1.183,1.183,0,0,1-.233-.7V13.126a5.3,5.3,0,0,0-3.839-5.089V6.554A1.458,1.458,0,0,0,12.512,5.1a1.478,1.478,0,0,0-1.454,1.454V8.008a5.287,5.287,0,0,0-3.839,5.118v3.781a1.183,1.183,0,0,1-.233.7L5.5,19.437a.918.918,0,0,0-.2.553v2.3H19.782v-2.3A1.621,1.621,0,0,0,19.521,19.437ZM11.9,6.554a.582.582,0,0,1,1.163,0V7.863a4.1,4.1,0,0,0-1.192,0V6.554Zm6.95,14.831H6.114v-1.4L7.6,18.157a1.927,1.927,0,0,0,.436-1.25V13.126a4.449,4.449,0,1,1,8.9,0v3.781a1.927,1.927,0,0,0,.436,1.25l1.483,1.832v1.4Z" transform="translate(-5.3 -5.1)"/>
    <path id="Path_6" data-name="Path 6" d="M28,20.8v.872A3.239,3.239,0,0,1,31.228,24.9H32.1A4.1,4.1,0,0,0,28,20.8Z" transform="translate(-21.399 -16.234)"/>
    <path id="Path_7" data-name="Path 7" d="M24.185,66.212A1.5,1.5,0,0,1,22.672,64.7H21.8a2.385,2.385,0,0,0,4.769,0H25.7A1.5,1.5,0,0,1,24.185,66.212Z" transform="translate(-17.002 -47.368)"/>
  </g>
</svg>
