<svg xmlns="http://www.w3.org/2000/svg" width="56.38" height="31.009" viewBox="0 0 56.38 31.009">
  <path id="bx-stats" d="M53.742,24.595a5.638,5.638,0,0,0-1.981.376L45,19.436a7.1,7.1,0,0,0,.286-1.889,7.049,7.049,0,1,0-13.358,3.091l-8.2,9.692a5.807,5.807,0,0,0-.994-.1,5.532,5.532,0,0,0-1.443.209l-7.226-7.226a5.331,5.331,0,0,0,.212-1.44,5.638,5.638,0,1,0-5.638,5.638,5.533,5.533,0,0,0,1.443-.209l7.226,7.226a5.373,5.373,0,0,0-.212,1.44,5.638,5.638,0,1,0,10.93-1.891l8.211-9.7a7.134,7.134,0,0,0,2,.319,6.991,6.991,0,0,0,3.195-.793L48.2,29.338a5.854,5.854,0,0,0-.092.895,5.638,5.638,0,1,0,5.638-5.638Z" transform="translate(-3 -10.5)" fill="#EF6921"/>
</svg>
