<svg xmlns="http://www.w3.org/2000/svg" width="56.659" height="56.659" viewBox="0 0 56.659 56.659">
  <g id="chart1" transform="translate(-1.125 -1.125)">
    <path id="Path_204" data-name="Path 204" d="M13.874,9.563H3.485a2.364,2.364,0,0,0-2.36,2.36V49.7a2.364,2.364,0,0,0,2.36,2.36H13.874a2.364,2.364,0,0,0,2.36-2.36V11.923A2.364,2.364,0,0,0,13.874,9.563ZM12.457,48.281H4.9V13.34h7.555Z" transform="translate(0 5.728)" fill="#EF6921"/>
    <path id="Path_205" data-name="Path 205" d="M26.249,16.875H15.86a2.364,2.364,0,0,0-2.36,2.36v25.5a2.364,2.364,0,0,0,2.36,2.36H26.249a2.364,2.364,0,0,0,2.36-2.36v-25.5a2.364,2.364,0,0,0-2.36-2.36ZM24.832,43.316H17.277V20.652h7.555Z" transform="translate(8.4 10.691)" fill="#EF6921"/>
    <path id="Path_206" data-name="Path 206" d="M38.624,1.125H28.235a2.364,2.364,0,0,0-2.36,2.36V55.424a2.364,2.364,0,0,0,2.36,2.36H38.624a2.364,2.364,0,0,0,2.36-2.36V3.485a2.364,2.364,0,0,0-2.36-2.36ZM37.207,54.007H29.652V4.9h7.555Z" transform="translate(16.8)" fill="#EF6921"/>
  </g>
</svg>
