<svg id="circleLinkedin" xmlns="http://www.w3.org/2000/svg" width="39" height="39" viewBox="0 0 39 39">
  <path id="Path_182" data-name="Path 182" d="M19.5,0A19.5,19.5,0,1,1,0,19.5,19.5,19.5,0,0,1,19.5,0Z" fill="#0e76a8"/>
  <path id="Path_183" data-name="Path 183" d="M81.953,89.873H85.6V77.7H81.953ZM96.178,77.281A5.481,5.481,0,0,0,91.7,79.356V77.662H88.031V89.873H91.7v-6.6a2.9,2.9,0,0,1,2.88-2.757c1.6,0,2,1.361,2,2.723v6.636h3.651V82.964C100.223,78.166,97.951,77.281,96.178,77.281Zm-12.417-.795a1.828,1.828,0,1,0-1.828-1.828A1.829,1.829,0,0,0,83.761,76.486Z" transform="translate(-70.964 -63.08)" fill="#fff"/>
</svg>
