<svg id="circleTwitter" xmlns="http://www.w3.org/2000/svg" width="39" height="39" viewBox="0 0 39 39">
  <path id="Path_180" data-name="Path 180" d="M19.5,0A19.5,19.5,0,1,1,0,19.5,19.5,19.5,0,0,1,19.5,0Z" fill="#26a6d1"/>
  <path id="Path_181" data-name="Path 181" d="M86.87,84.149a9.71,9.71,0,0,1-2.73.728,4.65,4.65,0,0,0,2.09-2.553,9.634,9.634,0,0,1-3.019,1.12,4.814,4.814,0,0,0-3.469-1.455,4.682,4.682,0,0,0-4.751,4.61,4.476,4.476,0,0,0,.123,1.052,13.631,13.631,0,0,1-9.794-4.819,4.48,4.48,0,0,0-.644,2.318,4.573,4.573,0,0,0,2.113,3.838,4.832,4.832,0,0,1-2.153-.578v.058a4.652,4.652,0,0,0,3.812,4.523,4.914,4.914,0,0,1-1.252.162,4.792,4.792,0,0,1-.893-.083,4.739,4.739,0,0,0,4.44,3.2,9.715,9.715,0,0,1-5.9,1.974,9.992,9.992,0,0,1-1.135-.065,13.752,13.752,0,0,0,7.286,2.073A13.223,13.223,0,0,0,84.515,87.132l-.013-.6A9.483,9.483,0,0,0,86.87,84.149Z" transform="translate(-55.179 -71.012)" fill="#fff"/>
</svg>
