<svg id="circlePinterest" xmlns="http://www.w3.org/2000/svg" width="39" height="39" viewBox="0 0 39 39">
  <path id="Path_178" data-name="Path 178" d="M19.5,0A19.5,19.5,0,1,1,0,19.5,19.5,19.5,0,0,1,19.5,0Z" transform="translate(0 0)" fill="#c8232c"/>
  <path id="Path_179" data-name="Path 179" d="M83.21,63.781c-6.871,0-10.334,4.77-10.334,8.747,0,2.408.941,4.551,2.962,5.349a.5.5,0,0,0,.724-.35l.295-1.125a.664.664,0,0,0-.207-.78,3.949,3.949,0,0,1-.954-2.746,6.744,6.744,0,0,1,7.119-6.706c3.884,0,6.017,2.3,6.017,5.365,0,4.037-1.845,7.444-4.585,7.444a2.188,2.188,0,0,1-2.281-2.7c.434-1.772,1.277-3.687,1.277-4.968a1.9,1.9,0,0,0-1.951-2.1c-1.547,0-2.788,1.549-2.788,3.624a5.237,5.237,0,0,0,.462,2.216L77.1,82.682A15.242,15.242,0,0,0,77.06,88a.2.2,0,0,0,.344.08A14.842,14.842,0,0,0,80.014,83.5c.178-.623,1.018-3.849,1.018-3.849A4.179,4.179,0,0,0,84.564,81.4c4.647,0,7.8-4.1,7.8-9.6C92.364,67.649,88.732,63.781,83.21,63.781Z" transform="translate(-63.12 -55.242)" fill="#fff"/>
</svg>
