<svg xmlns="http://www.w3.org/2000/svg" width="18.087" height="18.087" viewBox="0 0 18.087 18.087">
  <g id="copy" transform="translate(-2.25 -2.25)">
    <path id="Path_229" data-name="Path 229" d="M21.919,10.292V21.919H10.292V10.292H21.919m0-1.292H10.292A1.292,1.292,0,0,0,9,10.292V21.919a1.292,1.292,0,0,0,1.292,1.292H21.919a1.292,1.292,0,0,0,1.292-1.292V10.292A1.292,1.292,0,0,0,21.919,9Z" transform="translate(-2.874 -2.874)" fill="#fff"/>
    <path id="Path_230" data-name="Path 230" d="M3.542,12.585H2.25V3.542A1.292,1.292,0,0,1,3.542,2.25h9.043V3.542H3.542Z" transform="translate(0 0)" fill="#fff"/>
  </g>
</svg>
