<svg width="58" height="58" viewBox="0 0 58 58" fill="none" xmlns="http://www.w3.org/2000/svg">
    <path d="M19.1041 22.125C24.6615 22.125 29.1667 17.6199 29.1667 12.0625C29.1667 6.50514 24.6615 2 19.1041 2C13.5468 2 9.04163 6.50514 9.04163 12.0625C9.04163 17.6199 13.5468 22.125 19.1041 22.125Z" stroke="#A1E9C4" stroke-width="4" stroke-linejoin="round"/>
    <path d="M15.7499 32.1875H22.4583C26.0166 32.1875 29.4292 33.601 31.9453 36.1172C34.4614 38.6333 35.875 42.0459 35.875 45.6042V55.6667H2.33325V45.6042C2.33325 42.0459 3.74679 38.6333 6.26291 36.1172C8.77902 33.601 12.1916 32.1875 15.7499 32.1875Z" stroke="#A1E9C4" stroke-width="4" stroke-linejoin="round"/>
    <path d="M45.9375 22.1251C49.6424 22.1251 52.6458 19.1216 52.6458 15.4167C52.6458 11.7118 49.6424 8.70837 45.9375 8.70837C42.2326 8.70837 39.2291 11.7118 39.2291 15.4167C39.2291 19.1216 42.2326 22.1251 45.9375 22.1251Z" stroke="#A1E9C4" stroke-width="4" stroke-linejoin="round"/>
    <path d="M42.5833 32.1875H49.2917C51.0709 32.1875 52.7771 32.8943 54.0352 34.1523C55.2933 35.4104 56 37.1167 56 38.8958V45.6042H35.875V38.8958C35.875 37.1167 36.5818 35.4104 37.8398 34.1523C39.0979 32.8943 40.8042 32.1875 42.5833 32.1875Z" stroke="#A1E9C4" stroke-width="4" stroke-linejoin="round"/>
    </svg>
    