<svg xmlns="http://www.w3.org/2000/svg" width="54.786" height="54.786" viewBox="0 0 54.786 54.786">
  <g id="development1" transform="translate(-2.25 -2.25)">
    <path id="Path_200" data-name="Path 200" d="M13.99,6.163V13.99H6.163V6.163H13.99M2.25,2.25V17.9H17.9V2.25Z" transform="translate(0 0)" fill="#EF6921"/>
    <path id="Path_201" data-name="Path 201" d="M25.24,9.538v7.827H17.413V9.538H25.24M13.5,5.625V21.278H29.153V5.625Z" transform="translate(8.316 2.495)" fill="#EF6921"/>
    <path id="Path_202" data-name="Path 202" d="M13.99,19.663V27.49H6.163V19.663H13.99M2.25,15.75V31.4H17.9V15.75Z" transform="translate(0 9.98)" fill="#EF6921"/>
    <path id="Path_203" data-name="Path 203" d="M34.73,11.25V22.99H22.99V34.73H11.25V50.383H50.383V11.25ZM26.9,26.9H34.73V34.73H26.9ZM22.99,46.47H15.163V38.643H22.99Zm11.74,0H26.9V38.643H34.73Zm11.74,0H38.643V38.643H46.47Zm0-11.74H38.643V26.9H46.47ZM38.643,22.99V15.163H46.47V22.99Z" transform="translate(6.653 6.653)" fill="#EF6921"/>
  </g>
</svg>
