<svg xmlns="http://www.w3.org/2000/svg" width="13.488" height="13.488" viewBox="0 0 13.488 13.488">
  <path id="downloadIcon" d="M5.69,0H7.8A.631.631,0,0,1,8.43.632V5.058h2.31a.526.526,0,0,1,.371.9L7.105,9.966a.51.51,0,0,1-.719,0L2.374,5.956a.526.526,0,0,1,.371-.9H5.058V.632A.631.631,0,0,1,5.69,0Zm7.8,9.905v2.951a.631.631,0,0,1-.632.632H.632A.631.631,0,0,1,0,12.856V9.905a.631.631,0,0,1,.632-.632H4.5l1.291,1.291a1.35,1.35,0,0,0,1.913,0L8.991,9.273h3.865A.631.631,0,0,1,13.488,9.905Zm-3.267,2.318a.527.527,0,1,0-.527.527A.528.528,0,0,0,10.222,12.224Zm1.686,0a.527.527,0,1,0-.527.527A.528.528,0,0,0,11.908,12.224Z" fill="#515151"/>
</svg>
