<svg width="76" height="65" viewBox="0 0 76 65" fill="none" xmlns="http://www.w3.org/2000/svg">
    <path d="M65.9167 14.3335H64.2501C62.4091 14.3335 60.9167 15.8259 60.9167 17.6668V58.9168C60.9167 60.7578 62.4091 62.2502 64.2501 62.2502H65.9167C67.7577 62.2502 69.2501 60.7578 69.2501 58.9168V17.6668C69.2501 15.8259 67.7577 14.3335 65.9167 14.3335Z" stroke="#F7D680" stroke-width="4"/>
    <path d="M49.25 28.9167H47.5833C45.7424 28.9167 44.25 30.4091 44.25 32.2501V58.9167C44.25 60.7577 45.7424 62.2501 47.5833 62.2501H49.25C51.0909 62.2501 52.5833 60.7577 52.5833 58.9167V32.2501C52.5833 30.4091 51.0909 28.9167 49.25 28.9167Z" stroke="#F7D680" stroke-width="4"/>
    <path d="M32.5834 37.2501H30.9167C29.0758 37.2501 27.5834 38.7425 27.5834 40.5835V58.9168C27.5834 60.7577 29.0758 62.2501 30.9167 62.2501H32.5834C34.4243 62.2501 35.9167 60.7577 35.9167 58.9168V40.5835C35.9167 38.7425 34.4243 37.2501 32.5834 37.2501Z" stroke="#F7D680" stroke-width="4"/>
    <path d="M15.9166 49.7501H14.25C12.409 49.7501 10.9166 51.2425 10.9166 53.0835V58.9168C10.9166 60.7577 12.409 62.2501 14.25 62.2501H15.9166C17.7576 62.2501 19.25 60.7577 19.25 58.9168V53.0835C19.25 51.2425 17.7576 49.7501 15.9166 49.7501Z" stroke="#F7D680" stroke-width="4"/>
    <path fill-rule="evenodd" clip-rule="evenodd" d="M0.5 60.1668H75.5V64.3334H0.5V60.1668ZM2.20542 39.8097L52.1208 2.19592L54.6283 5.52342L4.7125 43.1376L2.20542 39.8097Z" fill="#F7D680"/>
    <path fill-rule="evenodd" clip-rule="evenodd" d="M51.6892 0.166748H55.8559V11.0001H51.6892V0.166748Z" fill="#F7D680"/>
    <path fill-rule="evenodd" clip-rule="evenodd" d="M55.9162 0.195923V4.36259H45.0829V0.195923H55.9162Z" fill="#F7D680"/>
    </svg>
    