<svg id="editLogo_black" xmlns="http://www.w3.org/2000/svg" width="15.779" height="13.672" viewBox="0 0 15.779 13.672">
  <path id="Path_1" data-name="Path 1" d="M2.13,18.506a.526.526,0,0,1-.526-.584l.4-3.681a.526.526,0,0,1,.152-.31l8.6-8.6a1.683,1.683,0,0,1,2.382,0l1.635,1.635a1.683,1.683,0,0,1,0,2.382l-8.6,8.6a.526.526,0,0,1-.31.152l-3.681.4Zm3.681-.936ZM3.04,14.536l-.316,2.85,2.85-.316L14.041,8.6a.631.631,0,0,0,0-.894L12.4,6.069a.631.631,0,0,0-.894,0Z" transform="translate(-1.601 -4.834)" fill="#101820"/>
  <path id="Path_2" data-name="Path 2" d="M29.225,13.957a.526.526,0,0,1-.373-.152l-3.266-3.276a.528.528,0,0,1,.747-.747l3.276,3.276a.526.526,0,0,1-.384.9Z" transform="translate(-17.653 -8.063)" fill="#101820"/>
  <rect id="Rectangle_1" data-name="Rectangle 1" width="5.79" height="1.052" transform="translate(3.842 9.091) rotate(-45)" fill="#101820"/>
  <path id="Path_3" data-name="Path 3" d="M29.883,44.549H21.469a.526.526,0,1,1,0-1.052h8.414a.526.526,0,1,1,0,1.052Z" transform="translate(-14.63 -30.877)" fill="#101820"/>
</svg>
