<svg xmlns="http://www.w3.org/2000/svg" width="36.409" height="23.591" viewBox="0 0 36.409 23.591">
  <g id="email_2" transform="translate(0)">
    <g id="Group_54" data-name="Group 54" transform="translate(24.135 4.349)">
      <g id="Group_53" data-name="Group 53">
        <path id="Path_94" data-name="Path 94" d="M339.392,152.518l12.274,7.313V144.9Z" transform="translate(-339.392 -144.896)" fill="#EF6921"/>
      </g>
    </g>
    <g id="Group_56" data-name="Group 56" transform="translate(0 4.349)">
      <g id="Group_55" data-name="Group 55">
        <path id="Path_95" data-name="Path 95" d="M0,144.9v14.935l12.274-7.313Z" transform="translate(0 -144.896)" fill="#EF6921"/>
      </g>
    </g>
    <g id="Group_58" data-name="Group 58" transform="translate(0.068)">
      <g id="Group_57" data-name="Group 57">
        <path id="Path_96" data-name="Path 96" d="M35.025,80H3.167A2.207,2.207,0,0,0,.96,81.825L19.1,93.087,37.233,81.825A2.207,2.207,0,0,0,35.025,80Z" transform="translate(-0.96 -80)" fill="#EF6921"/>
      </g>
    </g>
    <g id="Group_60" data-name="Group 60" transform="translate(0.073 13.265)">
      <g id="Group_59" data-name="Group 59">
        <path id="Path_97" data-name="Path 97" d="M23,277.922l-3.22,2a1.2,1.2,0,0,1-1.252,0l-3.22-2L1.024,286.436a2.2,2.2,0,0,0,2.2,1.81H35.085a2.2,2.2,0,0,0,2.2-1.81Z" transform="translate(-1.024 -277.92)" fill="#EF6921"/>
      </g>
    </g>
  </g>
</svg>
