<svg xmlns="http://www.w3.org/2000/svg" width="24.456" height="16.304" viewBox="0 0 24.456 16.304">
  <path id="eyeIcon" d="M24.308,12.032A13.618,13.618,0,0,0,12.228,4.5,13.62,13.62,0,0,0,.148,12.033a1.374,1.374,0,0,0,0,1.239A13.618,13.618,0,0,0,12.228,20.8a13.62,13.62,0,0,0,12.08-7.533A1.374,1.374,0,0,0,24.308,12.032Zm-12.08,6.734a6.114,6.114,0,1,1,6.114-6.114A6.114,6.114,0,0,1,12.228,18.766Zm0-10.19a4.047,4.047,0,0,0-1.075.161,2.032,2.032,0,0,1-2.84,2.84,4.067,4.067,0,1,0,3.915-3Z" transform="translate(0 -4.5)" fill="#fff"/>
</svg>
