<svg xmlns="http://www.w3.org/2000/svg" width="79.038" height="69.715" viewBox="0 0 79.038 69.715">
  <g id="Group_235" data-name="Group 235" transform="translate(0 1)">
    <path id="Path_233" data-name="Path 233" d="M238.944,433.518h79.038m-74.749-22.476H253.8v22.325H243.233V411.042ZM263.2,391.1h10.566v42.265H263.2V391.1Zm19.965,17.8h10.566v24.462H283.163V408.9Zm19.965-9.255h10.566v33.717H303.127V399.65Z" transform="translate(-238.944 -365.802)" fill="none" stroke="#0064a2" strokeMiterlimit="10" strokeWidth="2"/>
    <path id="Path_234" data-name="Path 234" d="M246.052,404a6.094,6.094,0,1,0,6.094,6.094A6.094,6.094,0,0,0,246.052,404Zm19.965-20.273a6.094,6.094,0,1,0,6.094,6.094,6.1,6.1,0,0,0-6.094-6.094Zm19.961,18.132a6.094,6.094,0,1,0,6.094,6.094,6.1,6.1,0,0,0-6.094-6.094Zm19.965-9.22a6.094,6.094,0,1,0,6.094,6.094,6.1,6.1,0,0,0-6.094-6.094Z" transform="translate(-236.478 -383.729)" fill="none" stroke="#0064a2" strokeMiterlimit="10" strokeWidth="2"/>
    <path id="Path_235" data-name="Path 235" d="M243.323,396.712l9.419-9.3m10.593-.46,9.509,8.7m10.953,1.849,7.165-3.483" transform="translate(-228.297 -375.881)" fill="none" stroke="#0064a2" strokeMiterlimit="10" strokeWidth="2"/>
  </g>
</svg>
