<svg xmlns="http://www.w3.org/2000/svg" width="230.262" height="104.084" viewBox="0 0 230.262 104.084">
  <g id="Group_251" data-name="Group 251" transform="translate(-654 -507)">
    <g id="Group_250" data-name="Group 250" transform="translate(654 507)">
      <g id="Group_246" data-name="Group 246" transform="translate(1.163 52.258)">
        <path id="Path_277" data-name="Path 277" d="M250.431,536v13.811h-7.29V515.3H258.3c7.522,0,11.572,4.142,11.572,9.473,0,4.63-2.52,7.135-5.014,8.164,1.709.63,4.288,2.41,4.288,8.586v1.7a27.587,27.587,0,0,0,.494,6.58h-7.069c-.607-1.5-.721-4.084-.721-7.748v-.5c0-3.772-.953-5.558-6.514-5.558Zm0-5.939h6.254c4.086,0,5.661-1.552,5.661-4.439,0-2.806-1.834-4.377-5.483-4.377h-6.433Z" transform="translate(-243.141 -514.273)" fill="#fff"/>
        <path id="Path_278" data-name="Path 278" d="M288.178,534.924h-16.5v8.767h18.2l-.884,6.116H264.436V515.3H288.9v6.115H271.676v7.392h16.5Z" transform="translate(-231.049 -514.273)" fill="#fff"/>
        <path id="Path_279" data-name="Path 279" d="M291.533,515.3v34.5h-7.461V515.3Z" transform="translate(-219.899 -514.273)" fill="#fff"/>
        <path id="Path_280" data-name="Path 280" d="M302.871,514.966h2.7V547.5h18.819l-.5,2.5h-21.02Z" transform="translate(-209.224 -514.464)" fill="#fff"/>
        <path id="Path_281" data-name="Path 281" d="M322.75,514.966V550h-2.7V514.966Z" transform="translate(-199.47 -514.464)" fill="#fff"/>
        <path id="Path_282" data-name="Path 282" d="M337.078,517.468H325.316v-2.5h26.326v2.5H339.831V550h-2.753Z" transform="translate(-196.479 -514.464)" fill="#fff"/>
        <path id="Path_283" data-name="Path 283" d="M348.132,514.966V550h-2.7V514.966Z" transform="translate(-185.057 -514.464)" fill="#fff"/>
        <path id="Path_284" data-name="Path 284" d="M380.6,540.821c-1.652,5.556-5.756,9.758-13.164,9.758-10.059,0-15.365-8.007-15.365-17.866,0-9.459,5.205-18.068,15.415-18.068,7.557,0,12.011,4.2,13.162,10.061h-2.7c-1.6-4.556-4.553-7.559-10.61-7.559-8.708,0-12.361,7.957-12.361,15.515,0,7.507,3.6,15.415,12.561,15.415,5.705,0,8.607-2.954,10.36-7.257Z" transform="translate(-181.286 -514.646)" fill="#fff"/>
        <path id="Path_285" data-name="Path 285" d="M376.457,540.773c1.052,4.652,4.155,7.4,9.91,7.4,6.406,0,8.858-3.2,8.858-7.007,0-3.953-1.751-6.4-9.459-8.306-7.408-1.853-10.611-4.255-10.611-9.31,0-4.6,3.354-8.908,10.86-8.908,7.707,0,10.961,4.7,11.411,8.959h-2.8c-.8-3.753-3.253-6.456-8.76-6.456-5.053,0-7.806,2.352-7.806,6.256,0,3.854,2.3,5.356,8.758,6.958,9.86,2.451,11.312,6.406,11.312,10.61,0,5.155-3.755,9.608-11.862,9.608-8.758,0-11.961-5.1-12.612-9.807Z" transform="translate(-169.03 -514.646)" fill="#fff"/>
      </g>
      <g id="Group_248" data-name="Group 248" transform="translate(0 93.418)">
        <g id="Group_247" data-name="Group 247">
          <path id="Path_286" data-name="Path 286" d="M243.228,548.655a2.665,2.665,0,0,0,2.932,2.2c1.9,0,2.621-.95,2.621-2.08,0-1.173-.519-1.9-2.8-2.466-2.192-.55-3.14-1.262-3.14-2.763,0-1.367.992-2.645,3.214-2.645,2.281,0,3.242,1.4,3.376,2.659H248.6a2.314,2.314,0,0,0-2.59-1.916c-1.5,0-2.311.7-2.311,1.858,0,1.143.682,1.588,2.592,2.063,2.918.729,3.347,1.9,3.347,3.15,0,1.53-1.112,2.852-3.51,2.852-2.592,0-3.539-1.515-3.731-2.91Z" transform="translate(-242.399 -540.899)" fill="#fff"/>
          <path id="Path_287" data-name="Path 287" d="M257.4,546.608c0-2.035.014-3.981.06-5.02h-.045c-.414,1.4-2.516,6.521-3.835,9.805h-.785c-.991-2.54-3.169-8.245-3.642-9.821h-.03c.075,1.188.1,3.611.1,5.393v4.428h-.8v-10.4h1.2c1.422,3.565,3.214,8.229,3.6,9.4h.03c.237-.757,2.311-5.944,3.761-9.4H258.2v10.4h-.8Z" transform="translate(-238.979 -540.845)" fill="#fff"/>
          <path id="Path_288" data-name="Path 288" d="M257.955,547.8l-1.319,3.6h-.814l3.805-10.4h.947l3.97,10.4h-.873l-1.348-3.6Zm4.1-.745c-1.156-3.089-1.747-4.575-1.955-5.273h-.014c-.252.787-.917,2.629-1.852,5.273Z" transform="translate(-234.776 -540.845)" fill="#fff"/>
          <path id="Path_289" data-name="Path 289" d="M263.369,546.535v4.859h-.815v-10.4h3.717c2.043,0,3.125,1.1,3.125,2.733a2.352,2.352,0,0,1-1.941,2.436c1.066.253,1.778.95,1.778,2.719v.4a6.953,6.953,0,0,0,.133,2.11h-.815a6.967,6.967,0,0,1-.147-2.17v-.268c0-1.707-.5-2.421-2.488-2.421Zm0-.742h2.5c1.822,0,2.665-.685,2.665-2.051,0-1.278-.829-2.005-2.443-2.005h-2.725Z" transform="translate(-230.954 -540.845)" fill="#fff"/>
          <path id="Path_290" data-name="Path 290" d="M271.17,541.737h-3.481v-.743h7.789v.743h-3.495v9.656h-.814Z" transform="translate(-228.038 -540.845)" fill="#fff"/>
          <path id="Path_291" data-name="Path 291" d="M279.723,546.282h-5.288v4.368h5.792l-.119.743h-6.47v-10.4h6.351v.743h-5.553v3.8h5.288Z" transform="translate(-224.661 -540.845)" fill="#fff"/>
          <path id="Path_292" data-name="Path 292" d="M279.955,546.535v4.859h-.815v-10.4h3.717c2.043,0,3.125,1.1,3.125,2.733a2.352,2.352,0,0,1-1.941,2.436c1.066.253,1.778.95,1.778,2.719v.4a6.953,6.953,0,0,0,.133,2.11h-.815a6.966,6.966,0,0,1-.147-2.17v-.268c0-1.707-.5-2.421-2.488-2.421Zm0-.742h2.5c1.82,0,2.665-.685,2.665-2.051,0-1.278-.829-2.005-2.444-2.005h-2.723Z" transform="translate(-221.536 -540.845)" fill="#fff"/>
          <path id="Path_293" data-name="Path 293" d="M288.337,546.535v4.859h-.814v-10.4h3.717c2.043,0,3.125,1.1,3.125,2.733a2.352,2.352,0,0,1-1.941,2.436c1.066.253,1.778.95,1.778,2.719v.4a6.951,6.951,0,0,0,.133,2.11h-.815a6.959,6.959,0,0,1-.149-2.17v-.268c0-1.707-.5-2.421-2.487-2.421Zm0-.742h2.5c1.82,0,2.665-.685,2.665-2.051,0-1.278-.829-2.005-2.444-2.005h-2.725Z" transform="translate(-216.776 -540.845)" fill="#fff"/>
          <path id="Path_294" data-name="Path 294" d="M299.584,546.282H294.3v4.368h5.792l-.119.743H293.5v-10.4h6.351v.743H294.3v3.8h5.287Z" transform="translate(-213.383 -540.845)" fill="#fff"/>
          <path id="Path_295" data-name="Path 295" d="M300.6,547.8l-1.317,3.6h-.815l3.807-10.4h.947l3.968,10.4h-.873l-1.348-3.6Zm4.1-.745c-1.154-3.089-1.747-4.575-1.955-5.273h-.013c-.254.787-.919,2.629-1.852,5.273Z" transform="translate(-210.564 -540.845)" fill="#fff"/>
          <path id="Path_296" data-name="Path 296" d="M305.194,540.994h.8v9.656h5.569l-.149.743h-6.22Z" transform="translate(-206.742 -540.845)" fill="#fff"/>
          <path id="Path_297" data-name="Path 297" d="M318.87,546.282h-5.287v4.368h5.79l-.118.743h-6.472v-10.4h6.353v.743h-5.553v3.8h5.287Z" transform="translate(-202.432 -540.845)" fill="#fff"/>
          <path id="Path_298" data-name="Path 298" d="M318.693,548.655a2.665,2.665,0,0,0,2.932,2.2c1.9,0,2.621-.95,2.621-2.08,0-1.173-.519-1.9-2.8-2.466-2.192-.55-3.139-1.262-3.139-2.763,0-1.367.992-2.645,3.212-2.645,2.281,0,3.244,1.4,3.377,2.659h-.829a2.316,2.316,0,0,0-2.592-1.916c-1.5,0-2.311.7-2.311,1.858,0,1.143.682,1.588,2.593,2.063,2.916.729,3.346,1.9,3.346,3.15,0,1.53-1.112,2.852-3.509,2.852-2.592,0-3.54-1.515-3.733-2.91Z" transform="translate(-199.548 -540.899)" fill="#fff"/>
          <path id="Path_299" data-name="Path 299" d="M325.432,547.8l-1.319,3.6H323.3l3.807-10.4h.947l3.968,10.4h-.873l-1.348-3.6Zm4.1-.745c-1.154-3.089-1.747-4.575-1.955-5.273h-.013c-.254.787-.919,2.629-1.852,5.273Z" transform="translate(-196.461 -540.845)" fill="#fff"/>
          <path id="Path_300" data-name="Path 300" d="M331.813,541.737h-3.481v-.743h7.789v.743h-3.495v9.656h-.814Z" transform="translate(-193.603 -540.845)" fill="#fff"/>
          <path id="Path_301" data-name="Path 301" d="M340.365,546.282h-5.287v4.368h5.79l-.118.743h-6.472v-10.4h6.353v.743h-5.553v3.8h5.287Z" transform="translate(-190.226 -540.845)" fill="#fff"/>
          <path id="Path_302" data-name="Path 302" d="M343.037,540.994v10.4h-.8v-10.4Z" transform="translate(-185.707 -540.845)" fill="#fff"/>
          <path id="Path_303" data-name="Path 303" d="M344.692,551.393v-10.4h1.184c1.616,2.5,5.408,8.3,6.058,9.434h.014c-.088-1.5-.075-3.031-.075-4.725v-4.708h.815v10.4h-1.094c-1.541-2.407-5.392-8.454-6.13-9.6h-.016c.074,1.366.06,2.882.06,4.768v4.829Z" transform="translate(-184.313 -540.845)" fill="#fff"/>
          <path id="Path_304" data-name="Path 304" d="M354.7,551.393l-3.849-10.4h.859l2.013,5.437c.577,1.574,1.229,3.313,1.45,4.189h.03c.223-.771.934-2.6,1.511-4.13l2.087-5.5h.845l-4,10.4Z" transform="translate(-180.818 -540.845)" fill="#fff"/>
          <path id="Path_305" data-name="Path 305" d="M363.664,546.282h-5.287v4.368h5.79l-.119.743h-6.47v-10.4h6.353v.743h-5.553v3.8h5.287Z" transform="translate(-176.996 -540.845)" fill="#fff"/>
          <path id="Path_306" data-name="Path 306" d="M363.485,548.655a2.666,2.666,0,0,0,2.932,2.2c1.9,0,2.621-.95,2.621-2.08,0-1.173-.519-1.9-2.8-2.466-2.19-.55-3.139-1.262-3.139-2.763,0-1.367.992-2.645,3.214-2.645,2.28,0,3.244,1.4,3.377,2.659h-.831a2.314,2.314,0,0,0-2.59-1.916c-1.5,0-2.311.7-2.311,1.858,0,1.143.682,1.588,2.593,2.063,2.916.729,3.344,1.9,3.344,3.15,0,1.53-1.11,2.852-3.509,2.852-2.59,0-3.539-1.515-3.731-2.91Z" transform="translate(-174.113 -540.899)" fill="#fff"/>
          <path id="Path_307" data-name="Path 307" d="M371.29,541.737h-3.479v-.743H375.6v.743h-3.493v9.656h-.815Z" transform="translate(-171.185 -540.845)" fill="#fff"/>
          <path id="Path_308" data-name="Path 308" d="M374.558,540.994v10.4h-.8v-10.4Z" transform="translate(-167.809 -540.845)" fill="#fff"/>
          <path id="Path_309" data-name="Path 309" d="M376.213,551.393v-10.4H377.4c1.615,2.5,5.406,8.3,6.057,9.434h.016c-.089-1.5-.075-3.031-.075-4.725v-4.708h.814v10.4h-1.094c-1.54-2.407-5.39-8.454-6.13-9.6h-.016c.074,1.366.06,2.882.06,4.768v4.829Z" transform="translate(-166.415 -540.845)" fill="#fff"/>
          <path id="Path_310" data-name="Path 310" d="M391.382,551.447h-.666a7.777,7.777,0,0,1-.1-1.665,3.367,3.367,0,0,1-3.347,1.783c-2.977,0-4.5-2.272-4.5-5.229,0-3.1,1.629-5.437,4.664-5.437,2.236,0,3.716,1.173,4.042,3.09h-.8a3.089,3.089,0,0,0-3.274-2.347c-2.592,0-3.775,2.019-3.775,4.65,0,2.375,1.14,4.531,3.67,4.531,2.593,0,3.319-1.695,3.319-4v-.119h-3.347v-.743h4.117Z" transform="translate(-162.695 -540.899)" fill="#fff"/>
        </g>
      </g>
      <g id="Group_249" data-name="Group 249" transform="translate(1.163 0)">
        <path id="Rectangle_1660" data-name="Rectangle 1660" d="M0,0H11.6a2.452,2.452,0,0,1,2.452,2.452V54.916a0,0,0,0,1,0,0H0a0,0,0,0,1,0,0V0A0,0,0,0,1,0,0Z" transform="translate(28.897 9.934) rotate(-45)" fill="#ffd047"/>
        <path id="Rectangle_1661" data-name="Rectangle 1661" d="M2.613,0H14.048a0,0,0,0,1,0,0V54.916a0,0,0,0,1,0,0H0a0,0,0,0,1,0,0V2.613A2.613,2.613,0,0,1,2.613,0Z" transform="translate(38.832 0) rotate(45)" fill="#ffd047"/>
        <rect id="Rectangle_1662" data-name="Rectangle 1662" width="14.048" height="24.102" transform="translate(74.845 21.801) rotate(45)" fill="#ffd047"/>
        <path id="Path_311" data-name="Path 311" d="M289,494.01l14.567-.362.382,15.365" transform="translate(-217.098 -474.312)" fill="#ffd047"/>
      </g>
    </g>
  </g>
</svg>
