<svg xmlns="http://www.w3.org/2000/svg" width="17.461" height="15.568" viewBox="0 0 17.461 15.568">
  <path id="heart_black" d="M15.155,1.426A4.437,4.437,0,0,0,11.862,0,4.155,4.155,0,0,0,9.276.888,5.276,5.276,0,0,0,8.23,1.974,5.273,5.273,0,0,0,7.185.888,4.154,4.154,0,0,0,4.6,0,4.437,4.437,0,0,0,1.306,1.426,5.1,5.1,0,0,0,0,4.921,6.078,6.078,0,0,0,1.633,8.911a34.737,34.737,0,0,0,4.087,3.816c.566.48,1.208,1.024,1.875,1.6a.97.97,0,0,0,1.272,0c.666-.58,1.309-1.124,1.875-1.6A34.722,34.722,0,0,0,14.828,8.91a6.077,6.077,0,0,0,1.632-3.989A5.1,5.1,0,0,0,15.155,1.426Zm0,0" transform="translate(0.5 0.5)" fill="none" stroke="#000" stroke-width="1"/>
</svg>
