<svg width="50" height="53" viewBox="0 0 50 53" fill="none" xmlns="http://www.w3.org/2000/svg">
    <path d="M18.0882 47.3641V39.9528C18.0882 38.0677 19.625 36.536 21.529 36.5234H28.5037C30.4169 36.5234 31.9678 38.0588 31.9678 39.9528V47.3871C31.9673 48.9876 33.2577 50.2956 34.8739 50.3332H39.5237C44.1589 50.3332 47.9165 46.6131 47.9165 42.0243V20.9414C47.8918 19.1361 47.0356 17.4409 45.5916 16.3381L29.6894 3.65614C26.9035 1.44795 22.9433 1.44795 20.1574 3.65614L4.32489 16.3611C2.87546 17.4594 2.01785 19.1575 2 20.9644V42.0243C2 46.6131 5.7576 50.3332 10.3928 50.3332H15.0426C16.699 50.3332 18.0417 49.0038 18.0417 47.3641" stroke="#F4B9B8" stroke-width="3.5" stroke-linecap="round" stroke-linejoin="round"/>
    </svg>
    