<svg id="logoImg_" xmlns="http://www.w3.org/2000/svg" width="146.866" height="66.387" viewBox="0 0 146.866 66.387">
  <g id="Group_240" data-name="Group 240" transform="translate(0.742 33.331)">
    <path id="Path_242" data-name="Path 242" d="M247.791,528.5v8.809h-4.65V515.3h9.67c4.8,0,7.381,2.642,7.381,6.042a5.27,5.27,0,0,1-3.2,5.207c1.09.4,2.735,1.537,2.735,5.476v1.086a17.6,17.6,0,0,0,.315,4.2h-4.509a15.453,15.453,0,0,1-.46-4.942v-.322c0-2.406-.608-3.545-4.155-3.545Zm0-3.788h3.989c2.606,0,3.611-.99,3.611-2.831,0-1.79-1.17-2.792-3.5-2.792h-4.1Z" transform="translate(-243.141 -514.646)" fill="#fff"/>
    <path id="Path_243" data-name="Path 243" d="M279.579,527.818H269.054v5.592h11.61l-.564,3.9H264.436V515.3h15.6v3.9H269.054v4.715h10.525Z" transform="translate(-243.141 -514.646)" fill="#fff"/>
    <path id="Path_244" data-name="Path 244" d="M288.831,515.3v22.008h-4.759V515.3Z" transform="translate(-243.141 -514.646)" fill="#fff"/>
    <path id="Path_245" data-name="Path 245" d="M302.871,514.966H304.6v20.748h12l-.32,1.6H302.871Z" transform="translate(-243.141 -514.646)" fill="#fff"/>
    <path id="Path_246" data-name="Path 246" d="M321.772,514.966v22.345h-1.723V514.966Z" transform="translate(-243.141 -514.646)" fill="#fff"/>
    <path id="Path_247" data-name="Path 247" d="M332.818,516.562h-7.5v-1.6h16.791v1.6h-7.533v20.749h-1.756Z" transform="translate(-243.141 -514.646)" fill="#fff"/>
    <path id="Path_248" data-name="Path 248" d="M347.154,514.966v22.345h-1.723V514.966Z" transform="translate(-243.141 -514.646)" fill="#fff"/>
    <path id="Path_249" data-name="Path 249" d="M370.268,531.341a8.158,8.158,0,0,1-8.4,6.224c-6.416,0-9.8-5.107-9.8-11.4,0-6.033,3.32-11.524,9.832-11.524,4.82,0,7.661,2.681,8.4,6.417h-1.724c-1.021-2.906-2.9-4.821-6.767-4.821-5.554,0-7.884,5.075-7.884,9.9,0,4.788,2.3,9.832,8.012,9.832,3.639,0,5.49-1.884,6.608-4.629Z" transform="translate(-243.141 -514.646)" fill="#fff"/>
    <path id="Path_250" data-name="Path 250" d="M375.442,531.31c.671,2.967,2.65,4.723,6.321,4.723,4.086,0,5.65-2.043,5.65-4.469,0-2.521-1.117-4.085-6.033-5.3-4.725-1.182-6.768-2.714-6.768-5.938,0-2.936,2.139-5.682,6.927-5.682,4.916,0,6.991,3,7.278,5.714H387.03c-.51-2.394-2.075-4.118-5.587-4.118-3.223,0-4.979,1.5-4.979,3.99,0,2.458,1.469,3.416,5.586,4.438,6.289,1.563,7.215,4.086,7.215,6.767,0,3.288-2.4,6.128-7.566,6.128-5.586,0-7.629-3.255-8.044-6.255Z" transform="translate(-243.141 -514.646)" fill="#fff"/>
  </g>
  <g id="Group_242" data-name="Group 242" transform="translate(0 59.584)">
    <g id="Group_241" data-name="Group 241">
      <path id="Path_251" data-name="Path 251" d="M242.928,545.846a1.7,1.7,0,0,0,1.87,1.4c1.209,0,1.672-.606,1.672-1.327,0-.748-.331-1.213-1.785-1.573-1.4-.351-2-.8-2-1.762,0-.872.633-1.687,2.05-1.687a1.939,1.939,0,0,1,2.153,1.7h-.529a1.476,1.476,0,0,0-1.652-1.222c-.954,0-1.474.445-1.474,1.185s.435,1.013,1.653,1.316c1.861.465,2.135,1.213,2.135,2.009,0,.976-.709,1.819-2.239,1.819a2.121,2.121,0,0,1-2.38-1.856Z" transform="translate(-242.399 -540.899)" fill="#fff"/>
      <path id="Path_252" data-name="Path 252" d="M254.146,544.575c0-1.3.009-2.539.038-3.2h-.029c-.264.891-1.6,4.159-2.446,6.254h-.5c-.632-1.62-2.021-5.259-2.323-6.264h-.019c.048.758.066,2.3.066,3.44v2.824h-.51v-6.633h.765c.907,2.274,2.05,5.249,2.295,6h.019c.151-.483,1.474-3.791,2.4-6h.756v6.633h-.51Z" transform="translate(-242.399 -540.899)" fill="#fff"/>
      <path id="Path_253" data-name="Path 253" d="M257.183,545.334l-.841,2.293h-.519l2.427-6.633h.6l2.532,6.633h-.557l-.86-2.293Zm2.616-.475c-.737-1.97-1.114-2.918-1.247-3.363h-.009c-.161.5-.585,1.677-1.181,3.363Z" transform="translate(-242.399 -540.899)" fill="#fff"/>
      <path id="Path_254" data-name="Path 254" d="M263.074,544.528v3.1h-.52v-6.633h2.371c1.3,0,1.993.7,1.993,1.743a1.5,1.5,0,0,1-1.238,1.554c.68.161,1.134.606,1.134,1.734v.256a4.434,4.434,0,0,0,.085,1.346h-.52a4.444,4.444,0,0,1-.094-1.384v-.171c0-1.089-.321-1.544-1.587-1.544Zm0-.473h1.6c1.162,0,1.7-.437,1.7-1.308,0-.815-.529-1.279-1.558-1.279h-1.738Z" transform="translate(-242.399 -540.899)" fill="#fff"/>
      <path id="Path_255" data-name="Path 255" d="M269.909,541.468h-2.22v-.474h4.968v.474h-2.229v6.159h-.519Z" transform="translate(-242.399 -540.899)" fill="#fff"/>
      <path id="Path_256" data-name="Path 256" d="M277.519,544.367h-3.373v2.786h3.694l-.076.474h-4.127v-6.633h4.051v.474h-3.542v2.426h3.373Z" transform="translate(-242.399 -540.899)" fill="#fff"/>
      <path id="Path_257" data-name="Path 257" d="M279.66,544.528v3.1h-.52v-6.633h2.371c1.3,0,1.993.7,1.993,1.743a1.5,1.5,0,0,1-1.238,1.554c.68.161,1.134.606,1.134,1.734v.256a4.434,4.434,0,0,0,.085,1.346h-.52a4.444,4.444,0,0,1-.094-1.384v-.171c0-1.089-.321-1.544-1.587-1.544Zm0-.473h1.6c1.161,0,1.7-.437,1.7-1.308,0-.815-.529-1.279-1.559-1.279H279.66Z" transform="translate(-242.399 -540.899)" fill="#fff"/>
      <path id="Path_258" data-name="Path 258" d="M288.042,544.528v3.1h-.519v-6.633h2.371c1.3,0,1.993.7,1.993,1.743a1.5,1.5,0,0,1-1.238,1.554c.68.161,1.134.606,1.134,1.734v.256a4.433,4.433,0,0,0,.085,1.346h-.52a4.438,4.438,0,0,1-.1-1.384v-.171c0-1.089-.32-1.544-1.586-1.544Zm0-.473h1.6c1.161,0,1.7-.437,1.7-1.308,0-.815-.529-1.279-1.559-1.279h-1.738Z" transform="translate(-242.399 -540.899)" fill="#fff"/>
      <path id="Path_259" data-name="Path 259" d="M297.38,544.367h-3.372v2.786H297.7l-.076.474H293.5v-6.633h4.051v.474h-3.542v2.426h3.372Z" transform="translate(-242.399 -540.899)" fill="#fff"/>
      <path id="Path_260" data-name="Path 260" d="M299.823,545.334l-.84,2.293h-.52l2.428-6.633h.6l2.531,6.633h-.557l-.86-2.293Zm2.616-.475c-.736-1.97-1.114-2.918-1.247-3.363h-.008c-.162.5-.586,1.677-1.181,3.363Z" transform="translate(-242.399 -540.899)" fill="#fff"/>
      <path id="Path_261" data-name="Path 261" d="M305.194,540.994h.51v6.159h3.552l-.1.474h-3.967Z" transform="translate(-242.399 -540.899)" fill="#fff"/>
      <path id="Path_262" data-name="Path 262" d="M316.666,544.367h-3.372v2.786h3.693l-.075.474h-4.128v-6.633h4.052v.474h-3.542v2.426h3.372Z" transform="translate(-242.399 -540.899)" fill="#fff"/>
      <path id="Path_263" data-name="Path 263" d="M318.392,545.846a1.7,1.7,0,0,0,1.87,1.4c1.209,0,1.672-.606,1.672-1.327,0-.748-.331-1.213-1.786-1.573-1.4-.351-2-.8-2-1.762,0-.872.633-1.687,2.049-1.687a1.94,1.94,0,0,1,2.154,1.7h-.529a1.477,1.477,0,0,0-1.653-1.222c-.954,0-1.474.445-1.474,1.185s.435,1.013,1.654,1.316c1.86.465,2.134,1.213,2.134,2.009,0,.976-.709,1.819-2.238,1.819a2.122,2.122,0,0,1-2.381-1.856Z" transform="translate(-242.399 -540.899)" fill="#fff"/>
      <path id="Path_264" data-name="Path 264" d="M324.66,545.334l-.841,2.293H323.3l2.428-6.633h.6l2.531,6.633h-.557l-.86-2.293Zm2.616-.475c-.736-1.97-1.114-2.918-1.247-3.363h-.008c-.162.5-.586,1.677-1.181,3.363Z" transform="translate(-242.399 -540.899)" fill="#fff"/>
      <path id="Path_265" data-name="Path 265" d="M330.552,541.468h-2.22v-.474H333.3v.474h-2.229v6.159h-.519Z" transform="translate(-242.399 -540.899)" fill="#fff"/>
      <path id="Path_266" data-name="Path 266" d="M338.161,544.367h-3.372v2.786h3.693l-.075.474h-4.128v-6.633h4.052v.474h-3.542v2.426h3.372Z" transform="translate(-242.399 -540.899)" fill="#fff"/>
      <path id="Path_267" data-name="Path 267" d="M342.747,540.994v6.633h-.51v-6.633Z" transform="translate(-242.399 -540.899)" fill="#fff"/>
      <path id="Path_268" data-name="Path 268" d="M344.692,547.627v-6.633h.755c1.031,1.592,3.449,5.3,3.864,6.017h.009c-.056-.957-.048-1.933-.048-3.014v-3h.52v6.633h-.7c-.983-1.535-3.439-5.392-3.91-6.121h-.01c.047.871.038,1.838.038,3.041v3.08Z" transform="translate(-242.399 -540.899)" fill="#fff"/>
      <path id="Path_269" data-name="Path 269" d="M353.3,547.627l-2.455-6.633h.548l1.284,3.468c.368,1,.784,2.113.925,2.672h.019c.142-.492.6-1.658.964-2.634l1.331-3.506h.539l-2.551,6.633Z" transform="translate(-242.399 -540.899)" fill="#fff"/>
      <path id="Path_270" data-name="Path 270" d="M361.46,544.367h-3.372v2.786h3.693l-.076.474h-4.127v-6.633h4.052v.474h-3.542v2.426h3.372Z" transform="translate(-242.399 -540.899)" fill="#fff"/>
      <path id="Path_271" data-name="Path 271" d="M363.185,545.846a1.7,1.7,0,0,0,1.87,1.4c1.209,0,1.672-.606,1.672-1.327,0-.748-.331-1.213-1.786-1.573-1.4-.351-2-.8-2-1.762,0-.872.633-1.687,2.05-1.687a1.941,1.941,0,0,1,2.154,1.7h-.53a1.476,1.476,0,0,0-1.652-1.222c-.954,0-1.474.445-1.474,1.185s.435,1.013,1.654,1.316c1.86.465,2.133,1.213,2.133,2.009,0,.976-.708,1.819-2.238,1.819a2.122,2.122,0,0,1-2.38-1.856Z" transform="translate(-242.399 -540.899)" fill="#fff"/>
      <path id="Path_272" data-name="Path 272" d="M370.03,541.468h-2.219v-.474h4.967v.474H370.55v6.159h-.52Z" transform="translate(-242.399 -540.899)" fill="#fff"/>
      <path id="Path_273" data-name="Path 273" d="M374.268,540.994v6.633h-.51v-6.633Z" transform="translate(-242.399 -540.899)" fill="#fff"/>
      <path id="Path_274" data-name="Path 274" d="M376.213,547.627v-6.633h.755c1.03,1.592,3.448,5.3,3.863,6.017h.01c-.057-.957-.048-1.933-.048-3.014v-3h.519v6.633h-.7c-.982-1.535-3.438-5.392-3.91-6.121h-.01c.047.871.038,1.838.038,3.041v3.08Z" transform="translate(-242.399 -540.899)" fill="#fff"/>
      <path id="Path_275" data-name="Path 275" d="M388.261,547.627h-.425a4.956,4.956,0,0,1-.066-1.062,2.147,2.147,0,0,1-2.135,1.137c-1.9,0-2.871-1.449-2.871-3.335,0-1.98,1.039-3.468,2.975-3.468a2.368,2.368,0,0,1,2.578,1.971h-.509a1.97,1.97,0,0,0-2.088-1.5c-1.653,0-2.408,1.288-2.408,2.966,0,1.515.727,2.89,2.341,2.89,1.654,0,2.117-1.081,2.117-2.549V544.6h-2.135v-.474h2.626Z" transform="translate(-242.399 -540.899)" fill="#fff"/>
    </g>
  </g>
  <g id="Group_243" data-name="Group 243" transform="translate(0.742)">
    <path id="Rectangle_1657" data-name="Rectangle 1657" d="M0,0H6.508A2.452,2.452,0,0,1,8.96,2.452V35.027a0,0,0,0,1,0,0H0a0,0,0,0,1,0,0V0A0,0,0,0,1,0,0Z" transform="translate(18.431 6.336) rotate(-45)" fill="#ffd047"/>
    <path id="Rectangle_1658" data-name="Rectangle 1658" d="M2.613,0H8.96a0,0,0,0,1,0,0V35.027a0,0,0,0,1,0,0H0a0,0,0,0,1,0,0V2.613A2.613,2.613,0,0,1,2.613,0Z" transform="translate(24.768 0) rotate(45)" fill="#ffd047"/>
    <rect id="Rectangle_1659" data-name="Rectangle 1659" width="8.96" height="15.373" transform="translate(47.738 13.905) rotate(45)" fill="#ffd047"/>
    <path id="Path_276" data-name="Path 276" d="M289,493.878l9.291-.231.244,9.8" transform="translate(-243.141 -481.315)" fill="#ffd047"/>
  </g>
</svg>
