<svg width="52" height="52" viewBox="0 0 52 52" fill="none" xmlns="http://www.w3.org/2000/svg">
    <path d="M50.035 1.69615C47.7813 -0.557533 43.8453 -0.561515 41.5877 1.69615L37.365 5.91882L37.3451 5.93873H7.96355C3.57165 5.93873 0 9.51038 0 13.9023V43.7656C0 48.1575 3.57165 51.7291 7.96355 51.7291H37.8269C42.2188 51.7291 45.7904 48.1575 45.7904 43.7656V14.3841L45.8103 14.3642L50.033 10.1415C51.1598 9.01465 51.783 7.51352 51.783 5.91882C51.783 4.32213 51.1598 2.821 50.035 1.69615ZM27.9341 26.6101L24.4143 27.3149L25.119 23.795L40.1781 8.73593L42.9932 11.551L27.9341 26.6101ZM7.96355 9.92051H33.3633L25.3997 17.8841H3.98177V13.9023C3.98177 11.7063 5.76959 9.92051 7.96355 9.92051ZM37.8269 47.7474H7.96355C5.7676 47.7474 3.98177 45.9615 3.98177 43.7656V21.8658H21.5374C21.4429 22.04 21.3744 22.2272 21.3344 22.4213L19.9268 29.4591C19.8639 29.7801 19.8809 30.1116 19.9763 30.4245C20.0717 30.7374 20.2425 31.022 20.4738 31.2533C20.7051 31.4846 20.9898 31.6555 21.3026 31.7509C21.6155 31.8463 21.9471 31.8633 22.2681 31.8004L29.3059 30.3928C29.6908 30.3149 30.0444 30.1259 30.3232 29.8493L38.3087 21.8638H41.8086V43.7636C41.8076 44.8195 41.3878 45.8319 40.6414 46.5787C39.8949 47.3255 38.8828 47.7458 37.8269 47.7474ZM47.2179 7.32638L45.8103 8.73394L42.9952 5.91882L44.4028 4.51127C44.782 4.14913 45.2863 3.94723 45.8107 3.9476C46.3351 3.94797 46.8391 4.15059 47.2179 4.51326C47.4031 4.69768 47.5501 4.91688 47.6504 5.15825C47.7506 5.39963 47.8023 5.65844 47.8023 5.91982C47.8023 6.1812 47.7506 6.44001 47.6504 6.68138C47.5501 6.92276 47.4031 7.14195 47.2179 7.32638Z" fill="#5FB6E9"/>
    </svg>
    