<svg xmlns="http://www.w3.org/2000/svg" width="61.181" height="68.715" viewBox="0 0 61.181 68.715">
  <path id="Path_232" data-name="Path 232" d="M450.513,429.147c-.737-11.346-9.524-5.6-10.534-21.013-.639-9.73,8.406-17.654,18.775-17.654s19.464,7.93,18.772,17.654c-.932,13.148-7.456,10.494-9.85,17.369M450.8,442.673l16.918-4.439m-16.918-1.94,16.918-4.439m-16.918-1.94,16.918-4.436m-2.92,15.133c0,2.9-2.7,5.253-6.04,5.253a6.314,6.314,0,0,1-5.038-2.353m5.612-65.362v5.687m20.637,2.175-4.02,4.02m13.394,18.123h-5.684m-4.511,21.218-4.02-4.02m-36.77-39.344,4.02,4.02m-14.216,16.963h5.684m3.692,22.381,4.02-4.02m8.77-14.8,5.489,6.18,12.163-13.82" transform="translate(-428.162 -378.151)" fill="none" stroke="#0064a2" strokeMiterlimit="10" strokeWidth="2"/>
</svg>
