<svg xmlns="http://www.w3.org/2000/svg" width="54.75" height="73" viewBox="0 0 54.75 73">
  <path id="pdfFile" d="M25.935,36.514c-.713-2.281-.7-6.687-.285-6.687C26.847,29.827,26.733,35.088,25.935,36.514Zm-.242,6.73a65.79,65.79,0,0,1-4.049,8.94c2.609-1,5.561-2.452,8.968-3.122A18.469,18.469,0,0,1,25.693,43.244ZM12.276,61.038c0,.114,1.882-.77,4.976-5.732C16.3,56.2,13.1,58.8,12.276,61.038ZM35.359,22.812H54.75V69.578A3.414,3.414,0,0,1,51.328,73H3.422A3.414,3.414,0,0,1,0,69.578V3.422A3.414,3.414,0,0,1,3.422,0H31.937V19.391A3.432,3.432,0,0,0,35.359,22.812ZM34.219,47.307a14.31,14.31,0,0,1-6.088-7.671c.642-2.638,1.654-6.644.884-9.154-.67-4.192-6.045-3.778-6.815-.97-.713,2.609-.057,6.288,1.155,10.979a133.885,133.885,0,0,1-5.817,12.233c-.014,0-.014.014-.029.014-3.864,1.982-10.494,6.345-7.771,9.7A4.43,4.43,0,0,0,12.8,63.861c2.552,0,5.09-2.566,8.712-8.811,3.679-1.212,7.713-2.723,11.264-3.308a21.608,21.608,0,0,0,9.125,2.78c4.163,0,4.448-4.562,2.809-6.188-1.982-1.939-7.742-1.383-10.494-1.027ZM53.752,14.971,39.779,1a3.419,3.419,0,0,0-2.424-1H36.5V18.25H54.75v-.87A3.411,3.411,0,0,0,53.752,14.971Zm-10.565,36.4c.585-.385-.356-1.7-6.1-1.283C42.374,52.34,43.187,51.371,43.187,51.371Z" fill="#c91010"/>
</svg>
