<svg xmlns="http://www.w3.org/2000/svg" width="45.995" height="45.995" viewBox="0 0 45.995 45.995">
  <g id="Pinterest" transform="translate(0.5 0.5)">
    <ellipse id="Ellipse_5" data-name="Ellipse 5" cx="22.498" cy="22.498" rx="22.498" ry="22.498" transform="translate(0 0)" fill="#cb2027" stroke="#fff" strokeWidth="1"/>
    <g id="Group_8" data-name="Group 8" transform="translate(11.63 9.862)">
      <path id="Path_40" data-name="Path 40" d="M41.684,44.857c-1.7-.132-2.415-.975-3.749-1.785-.733,3.846-1.629,7.534-4.283,9.46-.82-5.813,1.2-10.18,2.142-14.815-1.6-2.695.192-8.119,3.569-6.783,4.156,1.643-3.6,10.021,1.607,11.067,5.434,1.092,7.653-9.43,4.283-12.852-4.869-4.941-14.174-.112-13.03,6.961.279,1.729,2.066,2.254.714,4.64-3.116-.69-4.046-3.148-3.927-6.425.193-5.364,4.82-9.12,9.461-9.639,5.869-.657,11.378,2.155,12.138,7.676.855,6.231-2.65,12.979-8.925,12.494Z" transform="translate(-29 -24.593)" fill="#f1f2f2" stroke="#fff" strokeWidth="1"/>
    </g>
  </g>
</svg>
