<svg xmlns="http://www.w3.org/2000/svg" width="36" height="36" viewBox="0 0 36 36">
  <path id="pinterest-square" d="M29.25,0a6.5,6.5,0,0,1,4.77,1.98A6.5,6.5,0,0,1,36,6.75v22.5A6.76,6.76,0,0,1,29.25,36H12.258a16.368,16.368,0,0,0,2.531-4.922q.211-.8,1.242-4.9a4.008,4.008,0,0,0,1.723,1.57,5.524,5.524,0,0,0,2.637.656,8.38,8.38,0,0,0,6.926-3.457A13.846,13.846,0,0,0,30,16.195a9.262,9.262,0,0,0-.82-3.809,10.559,10.559,0,0,0-2.262-3.258,10.705,10.705,0,0,0-3.574-2.273A12.289,12.289,0,0,0,18.727,6a15.1,15.1,0,0,0-4.559.668,11.509,11.509,0,0,0-3.586,1.793,12.625,12.625,0,0,0-2.519,2.566,10.616,10.616,0,0,0-1.559,3A10.01,10.01,0,0,0,6,17.133a9.213,9.213,0,0,0,.926,4.219,5.257,5.257,0,0,0,2.73,2.578.676.676,0,0,0,.551,0,.659.659,0,0,0,.34-.445q.234-1.031.352-1.43a1.015,1.015,0,0,0-.258-.984,5.423,5.423,0,0,1-1.172-3.516A8.315,8.315,0,0,1,11.9,11.543a8.443,8.443,0,0,1,6.339-2.5,7.5,7.5,0,0,1,5.449,1.9,6.552,6.552,0,0,1,1.957,4.922,13.3,13.3,0,0,1-1.582,6.7q-1.582,2.765-4.066,2.766a2.839,2.839,0,0,1-2.273-1.02,2.623,2.623,0,0,1-.539-2.425q.188-.8.621-2.168t.691-2.391a7.3,7.3,0,0,0,.258-1.746,2.925,2.925,0,0,0-.621-1.91,2.153,2.153,0,0,0-1.77-.762,2.954,2.954,0,0,0-2.426,1.324,5.279,5.279,0,0,0-.995,3.27,6.408,6.408,0,0,0,.563,2.836l-2.3,9.7A17.73,17.73,0,0,0,11.04,36H6.75a6.5,6.5,0,0,1-4.77-1.98A6.5,6.5,0,0,1,0,29.25V6.75A6.5,6.5,0,0,1,1.98,1.98,6.5,6.5,0,0,1,6.75,0Z" fill="red"/>
</svg>
