<svg xmlns="http://www.w3.org/2000/svg" width="10.155" height="9.375" viewBox="0 0 10.155 9.375">
  <path id="print" d="M2.344,8.593H7.812V7.031H2.344Zm0-3.906H7.812V2.344H6.835a.584.584,0,0,1-.586-.586V.781H2.344V4.687Zm7.03.391a.4.4,0,1,0-.116.275A.375.375,0,0,0,9.374,5.078Zm.781,0V7.617a.2.2,0,0,1-.2.2H8.593v.977a.584.584,0,0,1-.586.586H2.148a.584.584,0,0,1-.586-.586V7.812H.2a.188.188,0,0,1-.137-.058A.187.187,0,0,1,0,7.616V5.078a1.128,1.128,0,0,1,.345-.827,1.129,1.129,0,0,1,.827-.345h.391V.586A.565.565,0,0,1,1.733.171.565.565,0,0,1,2.148,0h4.1a1.409,1.409,0,0,1,.537.122A1.42,1.42,0,0,1,7.25.415l.928.928a1.418,1.418,0,0,1,.293.464,1.414,1.414,0,0,1,.122.537V3.906h.391a1.177,1.177,0,0,1,1.172,1.172Z" fill="#fff"/>
</svg>
