<svg xmlns="http://www.w3.org/2000/svg" xmlns:xlink="http://www.w3.org/1999/xlink" width="46.013" height="46.013" viewBox="0 0 46.013 46.013">
  <defs>
    <linearGradient id="linear-gradient" x1="0.332" y1="0.141" x2="0.585" y2="0.682" gradientUnits="objectBoundingBox">
      <stop offset="0" stop-color="#00c3ff"/>
      <stop offset="1" stop-color="#00b0ed"/>
    </linearGradient>
    <linearGradient id="linear-gradient-2" x1="0.738" y1="0.628" x2="-0.899" y2="-0.25" gradientUnits="objectBoundingBox">
      <stop offset="0" stop-color="#00b0ed" stop-opacity="0"/>
      <stop offset="1" stop-color="#00a2ce"/>
    </linearGradient>
    <linearGradient id="linear-gradient-3" x1="0.5" y1="0.27" x2="0.5" y2="0.926" xlink:href="#linear-gradient-2"/>
    <linearGradient id="linear-gradient-4" x1="0.946" y1="0.922" x2="0.342" y2="0.273" xlink:href="#linear-gradient-2"/>
  </defs>
  <g id="Twitter" transform="translate(1.001 1.001)">
    <path id="Path_11" data-name="Path 11" d="M36.139,43.258a132.933,132.933,0,0,1-28.267,0A8.014,8.014,0,0,1,.753,36.139a132.929,132.929,0,0,1,0-28.267A8.014,8.014,0,0,1,7.872.753a132.929,132.929,0,0,1,28.267,0,8.014,8.014,0,0,1,7.119,7.118,132.93,132.93,0,0,1,0,28.267A8.013,8.013,0,0,1,36.139,43.258Zm0,0" transform="translate(0 0)" stroke="#fff" strokeWidth="2" fill="url(#linear-gradient)"/>
    <path id="Path_12" data-name="Path 12" d="M67.219,35.819A7.111,7.111,0,0,0,60.9,29.5a118,118,0,0,0-25.083,0A7.112,7.112,0,0,0,29.5,35.819a118,118,0,0,0,0,25.083,7.111,7.111,0,0,0,6.317,6.317,117.957,117.957,0,0,0,25.083,0A7.111,7.111,0,0,0,67.219,60.9,117.956,117.956,0,0,0,67.219,35.819Zm0,0" transform="translate(-26.355 -26.355)" fill="url(#linear-gradient-2)"/>
    <path id="Path_13" data-name="Path 13" d="M7.672,409.8q.045.456.094.913a8.014,8.014,0,0,0,7.119,7.118,132.93,132.93,0,0,0,28.267,0,8.013,8.013,0,0,0,7.118-7.118q.049-.456.094-.913Zm0,0" transform="translate(-7.012 -374.578)" fill="url(#linear-gradient-3)"/>
    <path id="Path_14" data-name="Path 14" d="M132.956,136.264l-9.136-9.135a10.9,10.9,0,0,1-2.606,1.09,7.453,7.453,0,0,1-.918.189,5.673,5.673,0,0,0-9.734,3.962c0,.113,0,.225.01.336a5.471,5.471,0,0,0,.1.8,15.54,15.54,0,0,1-9.613-3.844h0l-1.912-1.912s-2.243,3.915,1.055,6.885a6.292,6.292,0,0,0,.478.478l.042.046a5.558,5.558,0,0,1-2.488-.691,5.5,5.5,0,0,0,1.842,4.154l1.61,1.623a3.132,3.132,0,0,1-1.41-.134,5.422,5.422,0,0,0,1.624,2.552l2.255,2.267a11.674,11.674,0,0,1-6.838,1.522L111,159.816a133.083,133.083,0,0,0,14.094-.753,8.014,8.014,0,0,0,7.119-7.118A133.146,133.146,0,0,0,132.956,136.264Zm0,0" transform="translate(-88.955 -115.805)" fill="url(#linear-gradient-4)"/>
    <path id="Path_15" data-name="Path 15" d="M124.6,129.332a10.262,10.262,0,0,1-2.927.813l-.012-.068a5.445,5.445,0,0,0,2.159-2.947,10.9,10.9,0,0,1-2.606,1.09,7.519,7.519,0,0,1-.918.189,5.673,5.673,0,0,0-9.734,3.962c0,.113,0,.225.01.336a5.472,5.472,0,0,0,.1.8,15.856,15.856,0,0,1-11.526-5.756s-2.526,4.407,1.721,7.417a5.915,5.915,0,0,1-2.634-.7s-.269,4.246,4.622,5.589a5.367,5.367,0,0,1-2.58.054,5.471,5.471,0,0,0,5.16,3.924,11.3,11.3,0,0,1-8.119,2.417,16.031,16.031,0,0,0,24.59-13.552q0-.166,0-.331c0-.065,0-.131,0-.2,0-.046,0-.092,0-.138A10.03,10.03,0,0,0,124.6,129.332Zm0,0" transform="translate(-88.951 -115.805)" fill="#fff"/>
  </g>
</svg>
