<svg xmlns="http://www.w3.org/2000/svg" width="88.999" height="89.002" viewBox="0 0 88.999 89.002">
  <g id="User" transform="translate(0 0)">
    <path id="Path_55" data-name="Path 55" d="M24.846,64.343,11.568,71.585A11.932,11.932,0,0,0,9.437,73.1a44.473,44.473,0,0,0,57.141.148,11.781,11.781,0,0,0-2.341-1.568L50.019,64.573a5.422,5.422,0,0,1-3-4.85V54.144a21.476,21.476,0,0,0,1.345-1.73,32.717,32.717,0,0,0,4.42-8.907,4.466,4.466,0,0,0,3.167-4.249V33.3A4.445,4.445,0,0,0,54.465,30V21.4S56.234,8,38.092,8,21.719,21.4,21.719,21.4V30a4.439,4.439,0,0,0-1.488,3.3v5.955a4.464,4.464,0,0,0,2.059,3.746,29.55,29.55,0,0,0,5.384,11.139v5.441A5.428,5.428,0,0,1,24.846,64.343Z" transform="translate(6.41 5.435)" fill="#e8f2ff"/>
    <g id="Group_15" data-name="Group 15" transform="translate(0 0)">
      <path id="Path_56" data-name="Path 56" d="M45.262.007a44.473,44.473,0,0,0-29.4,78.517,11.825,11.825,0,0,1,2.111-1.5l13.278-7.243a5.424,5.424,0,0,0,2.826-4.761V59.578A29.522,29.522,0,0,1,28.7,48.439a4.466,4.466,0,0,1-2.059-3.746V38.738a4.445,4.445,0,0,1,1.488-3.3V26.83s-1.768-13.4,16.373-13.4,16.373,13.4,16.373,13.4v8.608a4.439,4.439,0,0,1,1.488,3.3v5.955a4.466,4.466,0,0,1-3.167,4.249,32.716,32.716,0,0,1-4.42,8.907,21.476,21.476,0,0,1-1.345,1.73v5.579a5.42,5.42,0,0,0,3,4.85l14.218,7.108a11.839,11.839,0,0,1,2.334,1.565A44.491,44.491,0,0,0,45.262.007Z" transform="translate(0 0)" fill="#EF6921"/>
    </g>
  </g>
</svg>
