<svg xmlns="http://www.w3.org/2000/svg" width="107.927" height="23.84" viewBox="0 0 107.927 23.84">
  <path id="ZilowLogo" d="M14.006,6.322c.1-.027.149.012.21.083.348.413,1.468,1.854,1.773,2.248a.131.131,0,0,1-.027.189A41.438,41.438,0,0,0,9.79,15.219c-.03.04,0,.043.015.034a67.519,67.519,0,0,1,10.754-3.373V8.429L10.456,0,.333,8.429V12.2A69.061,69.061,0,0,1,14.005,6.322ZM60.972,1.173h4.445V23.356H60.972V1.173Zm-3.293,0H53.234V23.357h4.445V1.173ZM87.194,8.842H82.8L87.25,23.359h4.09l1.117-3.67c.443-1.458,1.182-4.181,1.182-4.181a.034.034,0,0,1,.033-.026.035.035,0,0,1,.033.026s.74,2.775,1.16,4.206l1.1,3.643h4.017l4.415-14.516H100.31l-1.273,4.392q-.583,2.088-1.133,4.185a.034.034,0,0,1-.066,0s-.685-2.68-1.129-4.185L95.4,8.842H92.153l-1.335,4.391c-.418,1.4-1.152,4.187-1.152,4.187a.034.034,0,0,1-.065,0s-.709-2.732-1.134-4.187L87.194,8.842ZM67.617,16.149a7.477,7.477,0,1,1,14.948,0,7.477,7.477,0,1,1-14.948,0Zm10.682,0a3.233,3.233,0,1,0-6.417,0,3.233,3.233,0,1,0,6.417,0ZM27.52,3.225V7.5h7.856c.032,0,.044.032.028.06L27.517,21.71l-.014.026a1.3,1.3,0,0,0-.222.788v.834h15.3V19.088h-8.5a.035.035,0,0,1-.032-.021.039.039,0,0,1,0-.04L42.035,4.695l.022-.046a1.034,1.034,0,0,0,.109-.528l0-.894H27.52ZM47.638,1.57A2.592,2.592,0,0,1,50.169,4.2a2.533,2.533,0,1,1-5.061,0,2.592,2.592,0,0,1,2.53-2.634ZM45.416,8.842H49.86V23.357H45.416ZM5.569,20.783a.162.162,0,0,0,.219.034,71.689,71.689,0,0,1,14.771-5.126v7.754H.334V15.389a81.318,81.318,0,0,1,9.672-4.47c.04-.014.049.01.015.037a37.032,37.032,0,0,0-6.329,7.252c-.067.105-.063.139-.01.2ZM106.7,6.063a.658.658,0,0,1,.659.709.684.684,0,0,1-.408.664l.378.656h-.36l-.352-.61h-.31V8.09h-.316V6.063Zm-.392,1.12h.372a.413.413,0,0,0,0-.821H106.3Zm.3-1.824a1.661,1.661,0,0,0-1.533,1.081,1.821,1.821,0,0,0,.36,1.908,1.6,1.6,0,0,0,1.808.379A1.755,1.755,0,0,0,108.26,7.11,1.708,1.708,0,0,0,106.6,5.36Zm0,3.165a1.342,1.342,0,0,1-1.239-.873,1.472,1.472,0,0,1,.29-1.542,1.288,1.288,0,0,1,1.461-.307,1.418,1.418,0,0,1,.827,1.307A1.38,1.38,0,0,1,106.6,8.525Z" transform="translate(-0.333)" fill="#006aff" fill-rule="evenodd"/>
</svg>
